<?xml version="1.0" encoding="UTF-8" standalone="no"?>
<!-- Generator: Adobe Illustrator 23.1.1, SVG Export Plug-In . SVG Version: 6.00 Build 0)  -->

<svg
   xmlns:dc="http://purl.org/dc/elements/1.1/"
   xmlns:cc="http://creativecommons.org/ns#"
   xmlns:rdf="http://www.w3.org/1999/02/22-rdf-syntax-ns#"
   xmlns:svg="http://www.w3.org/2000/svg"
   xmlns="http://www.w3.org/2000/svg"
   xmlns:sodipodi="http://sodipodi.sourceforge.net/DTD/sodipodi-0.dtd"
   xmlns:inkscape="http://www.inkscape.org/namespaces/inkscape"
   version="1.1"
   id="Layer_1"
   x="0px"
   y="0px"
   viewBox="0 0 357.3 357.3"
   style="enable-background:new 0 0 357.3 357.3;"
   xml:space="preserve"
   sodipodi:docname="MIKE_Cog.svg"
   inkscape:version="0.92.4 (5da689c313, 2019-01-14)"><metadata
   id="metadata9"><rdf:RDF><cc:Work
       rdf:about=""><dc:format>image/svg+xml</dc:format><dc:type
         rdf:resource="http://purl.org/dc/dcmitype/StillImage" /></cc:Work></rdf:RDF></metadata><defs
   id="defs7" /><sodipodi:namedview
   pagecolor="#ffffff"
   bordercolor="#666666"
   borderopacity="1"
   objecttolerance="10"
   gridtolerance="10"
   guidetolerance="10"
   inkscape:pageopacity="0"
   inkscape:pageshadow="2"
   inkscape:window-width="716"
   inkscape:window-height="480"
   id="namedview5"
   showgrid="false"
   inkscape:zoom="0.6605094"
   inkscape:cx="178.64999"
   inkscape:cy="178.64999"
   inkscape:window-x="0"
   inkscape:window-y="0"
   inkscape:window-maximized="0"
   inkscape:current-layer="Layer_1" />
<path
   d="M328.7,212.4c-4.2,18.2-11.5,35.2-21.4,50.4l19.8,20.1l-46.5,45.8l-19.7-20c-15.3,9.8-32.4,17.1-50.8,21l-0.2,27.6  l-65.2-0.5l0.2-27c-18.6-4-36-11.3-51.5-21.4l-18.9,18.6l-45.8-46.5l18.4-18.1c-10.3-15.7-17.8-33.4-21.8-52.4L0,209.9l0.5-65.2  l25,0.2c4.1-19.1,11.8-36.9,22.3-52.7L30.2,74.4l46.5-45.8l17.7,18c15.9-10.1,33.7-17.4,52.8-21.2L147.4,0l65.2,0.5l-0.2,26.1  c18.6,4.3,36.1,11.9,51.5,22.3l19-18.7l45.8,46.5L309.2,96c9.7,15.5,16.8,32.7,20.5,51.2l27.7,0.2l-0.5,65.2L328.7,212.4z   M179.9,104.5c-41.7,0-75.4,33.8-75.4,75.4s33.8,75.4,75.4,75.4s75.4-33.8,75.4-75.4S221.6,104.5,179.9,104.5z"
   id="path2"
   style="fill:#ffffff" />
</svg>